<?xml version="1.0" encoding="UTF-8" standalone="no"?>
<svg
   xmlns:dc="http://purl.org/dc/elements/1.1/"
   xmlns:cc="http://creativecommons.org/ns#"
   xmlns:rdf="http://www.w3.org/1999/02/22-rdf-syntax-ns#"
   xmlns:svg="http://www.w3.org/2000/svg"
   xmlns="http://www.w3.org/2000/svg"
   xmlns:sodipodi="http://sodipodi.sourceforge.net/DTD/sodipodi-0.dtd"
   xmlns:inkscape="http://www.inkscape.org/namespaces/inkscape"
   width="210mm"
   height="297mm"
   viewBox="0 0 210 297"
   version="1.1"
   id="svg8"
   inkscape:version="1.0.1 (3bc2e81, 2020-09-07)"
   sodipodi:docname="one ring.svg">
  <defs
     id="defs2" />
  <sodipodi:namedview
     id="base"
     pagecolor="#ffffff"
     bordercolor="#666666"
     borderopacity="1.0"
     inkscape:pageopacity="0.0"
     inkscape:pageshadow="2"
     inkscape:zoom="0.24748737"
     inkscape:cx="441.42136"
     inkscape:cy="335.14121"
     inkscape:document-units="mm"
     inkscape:current-layer="layer1"
     inkscape:document-rotation="0"
     showgrid="false"
     inkscape:window-width="1415"
     inkscape:window-height="974"
     inkscape:window-x="503"
     inkscape:window-y="81"
     inkscape:window-maximized="0" />
  <metadata
     id="metadata5">
    <rdf:RDF>
      <cc:Work
         rdf:about="">
        <dc:format>image/svg+xml</dc:format>
        <dc:type
           rdf:resource="http://purl.org/dc/dcmitype/StillImage" />
        <dc:title />
      </cc:Work>
    </rdf:RDF>
  </metadata>
  <g
     inkscape:label="Layer 1"
     inkscape:groupmode="layer"
     id="layer1">
    <path
       style="fill:#000000;stroke-width:0.352778"
       d="m -233.30211,361.03934 c 0,-0.0792 2.10344,-1.52912 4.67431,-3.22212 13.32744,-8.77656 29.25161,-22.8496 37.10723,-32.79367 3.30075,-4.17826 8.11545,-11.2725 10.19297,-15.01885 l 1.2859,-2.31886 -2.18731,1.08414 c -2.6249,1.30102 -5.07222,1.46282 -6.23326,0.41209 -0.40842,-0.36962 -0.74502,-0.92524 -0.74799,-1.23472 -0.0135,-1.41017 -0.54112,-1.43928 -2.47549,-0.13661 -4.75485,3.20211 -8.54641,3.34942 -10.07602,0.39148 -1.40607,-2.71905 0.35687,-6.73753 4.45031,-10.14412 l 2.14601,-1.78593 h -1.41206 c -1.88414,0 -4.78898,0.62896 -6.73846,1.45902 -1.20318,0.51229 -1.75136,1.0167 -2.26435,2.08352 -0.37227,0.77417 -1.50061,2.31787 -2.50743,3.43044 l -1.83057,2.02285 h 2.27401 c 1.94527,0 2.36871,0.11695 2.92906,0.80895 2.26535,2.7976 0.40337,10.37305 -3.86944,15.74277 -3.49456,4.39167 -10.81646,9.41917 -21.39484,14.69054 -8.03162,4.00228 -11.54587,4.84216 -4.45813,1.06546 13.44157,-7.16232 22.28653,-13.99973 24.6803,-19.07855 2.07451,-4.40149 2.28415,-8.15339 0.53256,-9.53119 -1.1751,-0.92433 -2.33662,-0.87758 -4.62135,0.18602 -1.03791,0.48318 -2.46666,0.87017 -3.175,0.86 l -1.28788,-0.0185 0.88194,-0.5747 c 2.01012,-1.30984 6.38795,-6.10264 7.23373,-7.91939 2.12894,-4.57309 -0.005,-5.82997 -5.51076,-3.24616 -2.50415,1.17512 -2.73678,1.37514 -2.95554,2.54123 -0.82658,4.40607 -5.9491,9.2227 -9.81889,9.23258 -1.64721,0.004 -3.41245,-1.53699 -3.41245,-2.97935 0,-1.33655 0.88711,-3.25073 1.71083,-3.69157 2.47169,-1.32281 3.86535,0.53875 2.68585,3.58757 -0.18652,0.48214 -0.0546,0.61737 0.60236,0.61737 2.2097,0 3.85699,-2.71248 4.0981,-6.74813 0.14438,-2.4164 0.082,-2.76994 -0.61059,-3.46257 -0.96305,-0.96303 -1.96564,-0.80048 -5.70694,0.92522 -2.50342,1.15473 -2.71803,1.3409 -3.11834,2.70513 -1.65083,5.6259 -9.27198,11.0456 -12.53021,8.91072 -0.74424,-0.48765 -0.88939,-0.85647 -0.88939,-2.26001 0,-2.82752 1.96862,-4.59136 3.79142,-3.39702 0.7628,0.4998 0.84595,0.74778 0.65377,1.94965 -0.17701,1.10693 -0.11215,1.37701 0.33066,1.37701 2.89698,0 6.07789,-5.86563 4.87743,-8.99401 -0.45654,-1.18971 -1.86716,-1.33159 -3.80632,-0.38284 -2.06682,1.0112 -3.18994,2.10306 -6.15022,5.97905 -2.26409,2.96445 -4.90712,5.20006 -6.94147,5.87146 -2.29102,0.7561 -2.29713,0.18412 -0.0235,-2.19467 3.07641,-3.21864 8.08029,-10.9217 7.35376,-11.32051 -0.44568,-0.24464 -2.28318,0.41319 -4.49165,1.60803 -1.91908,1.03828 -2.40476,1.56651 -5.29166,5.75521 -12.73048,18.47108 -19.25207,25.27169 -37.75087,39.36599 -9.71814,7.40429 -16.56112,12.00923 -17.64205,11.87212 -0.7316,-0.0928 -0.0423,-0.70483 4.16086,-3.69442 9.89454,-7.03769 20.87003,-15.88597 26.83988,-21.63794 4.84188,-4.66516 12.53228,-14.03064 17.47977,-21.28712 l 1.1628,-1.70547 -1.36035,0.898 c -2.93915,1.94021 -6.35572,2.51129 -8.26759,1.38192 -4.37222,-2.58273 -1.19637,-11.84621 5.0599,-14.75896 3.7682,-1.75436 8.02094,-0.88264 8.02094,1.64413 0,1.18721 -1.36091,2.78058 -2.37491,2.78058 -1.24518,0 -2.29091,-1.0608 -2.12955,-2.16024 0.13461,-0.91716 0.0513,-1.01476 -0.86582,-1.01476 -2.21158,0 -4.87901,2.38824 -5.58157,4.99737 -0.77315,2.87123 0.38115,5.93913 2.23435,5.93846 0.9663,-3.4e-4 4.69156,-1.73974 6.73065,-3.14267 1.06838,-0.73506 2.45261,-2.44374 4.63983,-5.72733 8.78285,-13.18533 16.11723,-21.1222 22.49296,-24.34066 3.23302,-1.63202 7.22018,-2.10523 6.7183,-0.79735 -0.11381,0.29657 -0.70398,0.4975 -1.4749,0.50215 -4.07713,0.0246 -11.10585,6.36732 -18.85169,17.01183 -1.79265,2.4635 -3.52022,4.92033 -3.83904,5.45962 l -0.57968,0.98053 2.75115,-1.33488 c 3.09289,-1.50068 6.21465,-2.09423 6.54104,-1.24366 0.10903,0.28412 0.0318,0.95449 -0.17174,1.4897 -0.20349,0.53521 -0.24965,0.91148 -0.10259,0.83615 3.06791,-1.57143 5.5282,-2.53085 6.82533,-2.6616 1.44204,-0.14536 1.70241,-0.0573 2.38125,0.80575 0.4192,0.53293 0.76219,1.36379 0.76219,1.84636 0,0.84427 0.03,0.85579 0.79375,0.30515 2.43592,-1.75617 5.08769,-2.80204 7.50836,-2.96131 2.30143,-0.15143 2.56351,-0.0941 3.61598,0.79154 0.8619,0.72524 1.13471,1.2389 1.13471,2.1365 v 1.1817 l 3.73791,-1.78556 c 2.85332,-1.363 4.25663,-1.8272 5.92978,-1.96151 2.12319,-0.17042 2.22162,-0.14058 3.14126,0.95235 0.52216,0.62055 0.94939,1.26274 0.94939,1.42708 0,0.16433 1.23031,-0.2321 2.73402,-0.88096 5.04032,-2.17493 6.84843,-2.36834 20.90209,-2.23586 11.46521,0.10808 12.6205,0.0651 13.67014,-0.50836 1.55466,-0.84942 1.44174,-0.33171 -0.29413,1.34857 -0.79236,0.76698 -1.76709,1.84711 -2.16606,2.40028 -0.63983,0.88713 -0.47927,0.8247 1.36103,-0.52916 1.14755,-0.84422 2.77092,-1.84302 3.60751,-2.21956 2.05383,-0.92441 2.66125,-0.52292 2.8012,1.8515 l 0.10607,1.79977 1.62685,-1.2418 c 4.95265,-3.78045 9.07578,-3.96729 10.47328,-0.4746 l 0.58167,1.45375 1.13775,-0.75998 c 3.90907,-2.61114 8.47116,-3.80759 10.47577,-2.74737 1.11988,0.5923 2.48003,2.60931 2.48003,3.67774 0,0.45638 0.0881,0.82978 0.19575,0.82978 0.10766,0 1.09984,-0.61206 2.20486,-1.36013 1.10501,-0.74807 2.52298,-1.62419 3.15103,-1.94695 0.72513,-0.37264 1.91807,-1.74114 3.26842,-3.7494 5.70327,-8.48197 12.76459,-15.22904 18.34383,-17.52746 2.63883,-1.08709 6.21524,-1.12471 7.54419,-0.0794 1.382718,1.08764 1.980808,2.51437 1.980808,4.72516 0,4.39793 -2.859838,7.67474 -6.672358,7.64521 -4.09261,-0.0317 -6.04784,-2.23803 -5.02089,-5.6657 0.76947,-2.56826 3.60561,-3.96543 5.5128,-2.71579 1.80639,1.18358 0.68271,4.09386 -1.58066,4.09386 -1.21621,0 -1.39089,0.64802 -0.4132,1.53282 0.8334,0.75422 2.50118,0.73427 3.45871,-0.0414 2.77316,-2.24634 1.56669,-6.2766 -1.99862,-6.67649 -4.36075,-0.4891 -11.49991,4.62774 -17.07841,12.24059 -2.49736,3.40808 -2.82051,4.12892 -2.1511,4.79833 0.66368,0.66368 0.66457,1.30666 0.004,3.13917 -0.2796,0.77611 -0.51076,1.44443 -0.51368,1.48516 -0.003,0.0407 1.06625,-0.73806 2.37594,-1.73064 3.14967,-2.38707 4.77359,-3.08872 7.17045,-3.09817 2.29335,-0.009 3.29941,0.76268 3.75528,2.88055 l 0.27497,1.27743 2.8718,-1.70186 c 1.5795,-0.93603 3.69485,-1.99238 4.7008,-2.34745 1.79196,-0.63251 1.83917,-0.63171 2.33167,0.0392 0.65562,0.89315 0.62028,1.7302 -0.16963,4.01739 l -0.64927,1.87996 1.27815,-1.2121 c 2.545488,-2.41396 6.484648,-4.67789 8.777278,-5.04449 1.78438,-0.28534 3.40811,0.51839 3.90043,1.93067 l 0.36357,1.04293 2.28291,-1.21223 c 5.25864,-2.79234 9.06091,-2.0358 9.06091,1.80287 0,2.10643 -1.48433,4.76255 -4.2662,7.63413 l -2.4287,2.50702 1.99665,-0.23467 c 1.09815,-0.12907 2.70841,-0.54951 3.57835,-0.93433 0.86994,-0.38482 1.66364,-0.61774 1.76377,-0.51761 0.38024,0.38024 -1.58502,2.01484 -3.63006,3.01931 -3.42887,1.68416 -6.65733,2.22841 -12.53604,2.11334 -11.451418,-0.22414 -12.100318,-0.2026 -14.037868,0.46611 -1.77698,0.6133 -1.97904,0.81699 -4.18948,4.22327 -4.99586,7.69859 -10.39203,13.97378 -21.2099,24.66489 -7.58793,7.49902 -8.59887,8.37846 -9.63121,8.37846 -1.13566,0 -1.09999,-0.0502 2.31757,-3.26319 1.90903,-1.79476 3.72364,-3.44367 4.03246,-3.66426 1.00604,-0.71863 11.20361,-11.85885 14.0031,-15.29754 3.80713,-4.6764 8.37067,-11.72382 11.33401,-17.50302 2.33073,-4.54548 4.32855,-9.56226 4.32855,-10.86959 0,-1.02279 -1.81226,-0.59805 -4.44221,1.04113 -2.09074,1.3031 -2.60638,1.80526 -2.80742,2.73403 -0.82969,3.83312 -4.11901,7.61015 -7.47784,8.58659 -4.68119,1.36086 -7.51893,-1.62186 -4.31785,-4.53844 2.1317,-1.94224 4.79296,-0.52069 3.51068,1.87527 -0.54057,1.01007 0.39052,0.89035 1.5689,-0.20174 1.98859,-1.84295 3.49994,-6.69997 2.71623,-8.72909 -0.3154,-0.81661 -0.58177,-0.97014 -1.68316,-0.97014 -3.3459,0 -8.0101,3.9139 -10.3175,8.65779 l -1.46671,3.01549 -2.54643,1.16796 c -1.40053,0.64238 -2.60466,1.11942 -2.67585,1.06008 -0.0712,-0.0593 0.67234,-1.1785 1.6523,-2.48704 2.06404,-2.75613 4.47706,-7.40893 4.94509,-9.5352 0.39141,-1.77817 0.0158,-2.33231 -1.25369,-1.84965 -1.43149,0.54425 -5.73974,3.64003 -5.74166,4.12577 -0.001,0.24807 -0.46321,1.36513 -1.02718,2.48237 -2.5207,4.99347 -8.4454,7.94521 -11.19695,5.57843 -2.38394,-2.05058 0.0882,-6.71822 2.8836,-5.44454 1.15131,0.52457 1.46761,1.80137 0.72646,2.9325 -0.67314,1.02734 -0.36473,1.12509 0.86089,0.27287 3.17621,-2.20857 4.96182,-7.61444 3.15553,-9.55326 -1.49375,-1.60336 -3.83368,-1.31257 -7.18212,0.89256 -1.63101,1.0741 -2.0665,1.5743 -2.37808,2.73143 -0.87281,3.24136 -3.67304,6.75548 -6.48142,8.13378 -1.93042,0.94742 -5.45409,0.95991 -6.48935,0.023 -1.08929,-0.9858 -0.99444,-2.90704 0.20535,-4.15936 1.73375,-1.80964 4.33208,-0.84302 3.87515,1.44162 -0.20464,1.02318 -0.19048,1.03424 0.92412,0.72181 2.64067,-0.74021 5.00345,-5.27048 4.12969,-7.91802 -1.61563,-4.89541 -8.23567,-1.62061 -12.37431,6.12134 -9.45527,17.6875 -21.82337,32.03555 -40.33462,46.79162 -4.10113,3.26918 -5.34597,4.08654 -6.08908,3.99809 -0.85359,-0.1016 -0.69417,-0.29351 1.85071,-2.22785 11.18097,-8.4985 24.10574,-21.79644 31.88762,-32.80832 6.522,-9.22905 12.71333,-20.74618 12.71333,-23.64934 0,-1.26342 -0.96013,-1.11618 -3.41616,0.52389 -2.69408,1.79904 -2.82419,1.95615 -5.42024,6.54489 -7.3094,12.92004 -16.77432,24.63135 -28.02888,34.68125 -10.96109,9.78782 -27.39286,21.93958 -29.66702,21.93958 -0.46655,0 -0.84828,-0.0648 -0.84828,-0.14393 z m 134.647158,-55.08549 c 2.092,-0.22403 2.29386,-0.33174 3.99728,-2.13286 1.77958,-1.88163 2.81948,-3.73332 2.81948,-5.02047 0,-1.07299 -1.35594,-2.52835 -2.35562,-2.52835 -3.01562,0 -8.289718,4.695 -11.515008,10.25066 l -0.93328,1.6076 2.89195,-0.97031 c 1.59057,-0.53368 3.883408,-1.07649 5.095198,-1.20627 z m -92.783208,-0.56678 c 1.07789,-0.64757 2.02967,-1.41553 2.11505,-1.70657 0.4173,-1.42242 1.71008,-3.5701 3.11737,-5.17884 l 1.56031,-1.78367 -3.60263,-0.18684 c -3.32247,-0.17231 -3.71493,-0.12242 -5.04673,0.64155 -1.80161,1.03347 -3.26203,2.91604 -3.8958,5.02192 -0.50853,1.6897 -0.40888,2.51283 0.47319,3.90882 0.45142,0.71443 0.73008,0.80833 1.92366,0.64824 0.76768,-0.10297 2.27768,-0.71704 3.35558,-1.36461 z m 11.30608,-0.16908 c 1.567,-0.8935 2.65455,-2.29612 4.81646,-6.2118 l 1.31474,-2.38125 h -3.69395 -3.69394 l -1.25939,1.47132 c -1.29497,1.51288 -2.67614,4.64008 -2.67614,6.05921 0,0.90331 0.62073,1.82429 1.41111,2.09366 0.801,0.27299 2.12921,-0.0892 3.78111,-1.03114 z m 96.028198,-0.56735 c 1.92881,-1.89904 3.18032,-4.04844 3.19405,-5.48558 0.0115,-1.20001 -0.91679,-2.77561 -1.76607,-2.99771 -1.90221,-0.49743 -5.38031,1.67616 -6.37241,3.98235 -0.39829,0.92586 -1.63387,2.56283 -2.81983,3.7359 -1.98459,1.96301 -2.06268,2.10169 -1.30506,2.31737 0.44321,0.12619 2.24187,0.24525 3.99702,0.26459 l 3.19119,0.0352 1.88111,-1.85208 z m -39.819168,55.20971 c 0.01,-0.14552 1.24016,-1.13587 2.73402,-2.20078 11.20309,-7.98618 28.644848,-25.41474 38.485958,-38.45685 4.01986,-5.32739 6.65062,-9.62657 9.59559,-15.68109 2.40943,-4.95348 2.93603,-6.54382 2.24522,-6.78048 -0.20192,-0.0692 -1.42354,0.51138 -2.71471,1.29012 -1.29117,0.77875 -2.51502,1.4159 -2.71968,1.4159 -0.69384,0 -0.37656,-1.02563 0.59804,-1.93321 1.44811,-1.34853 6.91447,-4.06402 8.181,-4.06402 1.43827,0 1.68078,0.70211 0.98934,2.86429 -0.30283,0.947 -0.48721,1.72183 -0.40971,1.72183 0.0775,0 0.89634,-0.57997 1.81965,-1.28883 3.48451,-2.67516 8.1417,-4.18518 10.82826,-3.5109 0.99007,0.2485 1.96299,1.82188 1.96299,3.17454 v 0.87929 l 3.43958,-1.52319 c 1.89177,-0.83776 4.3515,-1.80989 5.46607,-2.1603 1.91231,-0.60121 2.1707,-0.82649 4.58611,-3.99856 3.13855,-4.12174 9.82861,-11.11415 12.74663,-13.32269 4.64474,-3.51543 8.90606,-4.71833 11.94802,-3.37272 0.88988,0.39363 1.88377,1.12137 2.20864,1.6172 2.1162255,3.22978 -0.37989,8.66216 -4.48854,9.7685 -2.80201,0.75451 -5.41559,-0.12391 -6.60551,-2.22011 -0.42831,-0.75453 -0.43667,-1.13658 -0.0529,-2.41756 0.53071,-1.77136 2.44622,-3.84967 3.54811,-3.84967 3.0125,0 3.59543,3.45695 0.80613,4.78056 -1.19542,0.56727 -1.23304,0.63391 -0.61357,1.08688 0.97927,0.71605 2.74398,0.59204 3.65518,-0.25688 1.77091,-1.64985 1.66691,-3.3656 -0.30457,-5.02448 -3.15571,-2.65535 -8.94291,0.11266 -16.27014,7.78198 -2.51848,2.63607 -6.6637,7.81912 -6.6637,8.33209 0,0.12825 1.00813,0.23318 2.2403,0.23318 1.23217,0 4.52624,0.39553 7.32014,0.87896 6.61253,1.14417 7.74227,1.12016 11.68915,-0.24834 2.9738,-1.03111 3.65768,-1.13447 7.586105,-1.14653 3.2813205,-0.0101 4.3613605,-0.12712 4.4996605,-0.48762 0.47467,-1.23728 5.79436998,-8.88422 8.14602,-11.7097 4.6041,-5.53178 8.2098795,-7.11192 11.8105095,-5.17563 1.43961,0.77417 1.68225,0.81152 2.29305,0.35296 3.47328,-2.60759 8.71954,-3.68573 10.98473,-2.25744 1.72882,1.09011 2.31923,2.54779 2.16164,5.33697 -0.10565,1.86949 -0.35722,2.73092 -1.19168,4.08062 -1.80788,2.92418 -5.04895,4.55725 -7.71606,3.88786 -1.33162,-0.33423 -3.29733,-2.21426 -3.55851,-3.40345 -0.52306,-2.3815 1.48523,-5.19535 3.93235,-5.50965 1.76033,-0.2261 2.71459,0.45883 2.71459,1.94837 0,1.62273 -1.37076,2.96492 -2.85151,2.79205 -1.29374,-0.15104 -1.42631,0.0686 -0.52927,0.87702 0.97787,0.88124 2.36802,1.08028 3.49064,0.49976 2.26766,-1.17265 2.98066,-2.9185 1.96032,-4.80006 -1.49307,-2.75337 -4.8421,-3.23922 -8.77296,-1.2727 -3.8734,1.93779 -10.1729495,8.21276 -13.9954295,13.9408 -1.60454,2.40447 -1.58549,2.41559 4.20062,2.44929 4.9213995,0.0287 7.1811495,-0.4933 8.9420395,-2.06541 1.09393,-0.97668 3.03181,-1.72799 3.42999,-1.32981 0.34427,0.34428 -3.22379,3.41562 -5.17815,4.45729 -2.20193,1.17362 -5.7411695,2.12447 -7.9375695,2.13251 -1.40599,0.005 -1.44345,0.0394 -2.79977,2.56285 -3.35580002,6.24337 -10.40115,18.14456 -13.41797,22.66597 -4.8787855,7.31203 -10.1867155,13.74999 -16.7372055,20.30048 -6.74063,6.74063 -14.80782,13.39625 -16.21525,13.37796 -0.87879,-0.0114 -0.86167,-0.0511 0.49514,-1.14653 14.21906,-11.4804 23.4289,-22.11295 33.2730955,-38.41303 2.80739,-4.64851 6.21552,-10.87582 5.95218,-10.87582 -0.0968,0 -1.02333,0.5609 -2.05892,1.24645 -1.03558,0.68555 -2.96628,1.57774 -4.29044,1.98264 -4.6693255,1.42777 -7.6465855,0.30033 -7.6465855,-2.89566 v -1.39112 l -2.38125,1.94656 c -1.30969,1.07061 -3.7602,2.61828 -5.44558,3.43926 l -3.06433,1.4927 -0.0302,1.41111 c -0.0451,2.10499 -1.08692,4.02972 -3.24711,5.99882 -3.31775,3.02425 -6.94367,4.39665 -11.63531,4.40394 -5.1934,0.008 -9.43773,-2.15588 -11.31997,-5.77142 -1.18349,-2.27332 -1.09168,-6.12317 0.20966,-8.79194 1.8448,-3.78332 5.96521,-7.53403 12.14624,-11.05644 l 2.70219,-1.5399 h -2.47497 c -2.94295,0 -5.81798,0.695 -8.83858,2.13659 -2.11568,1.00972 -2.26386,1.16687 -3.4753,3.68556 -2.79604,5.81321 -8.98565,9.54275 -11.9576,7.20502 -1.94123,-1.52697 -0.63591,-4.91328 1.89392,-4.91328 0.93135,0 1.1835,0.20523 1.71747,1.3979 l 0.62586,1.3979 1.28485,-0.87308 c 1.49498,-1.01586 3.0404,-3.47998 3.62402,-5.77835 1.45751,-5.73982 -4.47984,-4.99784 -10.80816,1.35068 -1.89929,1.90534 -4.07701,4.80785 -7.52484,10.02921 -2.66861,4.04132 -6.4659,9.35945 -8.43842,11.81805 -4.41526,5.50331 -15.67215,17.02452 -22.245688,22.76804 -7.86368,6.87076 -16.88354,13.96445 -17.76755,13.97333 -0.43657,0.004 -0.78569,-0.11109 -0.77583,-0.25661 z m 87.959208,-41.04904 c 2.73613,-0.89821 4.66844,-2.41225 5.54679,-4.34613 0.95065,-2.09306 0.88305,-2.27975 -0.74623,-2.06122 -1.7793,0.23865 -4.32134,-0.68646 -5.0838,-1.85013 -0.88974,-1.35791 -0.72268,-3.80101 0.34684,-5.07205 2.55871,-3.04085 7.31301,-1.27024 8.12505,3.02597 0.20137,1.06537 0.26033,1.10201 1.14755,0.71305 2.56543,-1.12468 5.37624,-3.07684 7.92161,-5.50169 3.24341,-3.08983 7.65394,-7.99222 7.65394,-8.50752 0,-0.20634 -1.31153,-0.35053 -3.1883,-0.35053 -2.82618,0 -3.55742,0.14455 -6.4382,1.27272 -3.87933,1.51923 -6.75719,1.83168 -11.11665,1.20695 -2.97673,-0.42659 -3.1545,-0.41139 -5.89157,0.50377 -7.48667,2.50323 -13.24867,8.34105 -13.22142,13.39537 0.0325,6.02822 7.74399,9.93517 14.94439,7.57144 z m 5.86044,-8.869 c -0.002,-0.7433 -1.32627,-2.66304 -2.25755,-3.27324 -1.76731,-1.15798 -2.96116,0.0484 -1.80066,1.8195 0.91196,1.39182 4.0614,2.52002 4.05821,1.45374 z m 24.1984155,-4.84673 c 1.14665,-0.5799 2.98543,-1.85234 4.08617,-2.82765 1.91116998,-1.6934 3.99817,-4.71572 3.64779,-5.28264 -0.091,-0.1472 -1.24051002,-0.37637 -2.55450002,-0.50927 -1.31399998,-0.1329 -3.42095998,-0.46078 -4.68213998,-0.72862 l -2.29305,-0.48697 -1.6329,1.7351 c -1.9804555,2.10444 -2.9143355,3.93906 -2.9273855,5.75093 -0.008,1.09397 0.21335,1.55839 1.13429,2.38125 1.4633455,1.30752 2.5864855,1.3006 5.2217255,-0.0321 z m 8.7876,-15.92988 c 1.55222,-2.13399 4.26078,-5.39271 6.01902,-7.24158 l 3.1967695,-3.3616 -0.82236,-0.53884 c -1.8071395,-1.18407 -5.1221595,0.50293 -8.3018195,4.22477 -2.31700002,2.71207 -7.00618,9.50681 -6.8627,9.94423 0.10065,0.30688 1.73389,0.68192 3.59608998,0.82577 0.19403,0.015 1.62278002,-1.71875 3.17500002,-3.85275 z M 115.94788,357.37852 c 0,-0.15234 1.22164,-1.14453 2.7147,-2.20487 16.34786,-11.60964 32.16628,-26.79578 42.42936,-40.73343 4.91204,-6.67075 5.1496,-7.03257 4.41342,-6.72177 -3.47214,1.46588 -6.21513,1.31735 -7.57396,-0.41014 l -0.74041,-0.94129 -2.3653,1.17658 c -1.79201,0.89141 -2.96905,1.21733 -4.85616,1.34469 -2.45287,0.16553 -2.50533,0.15089 -3.43959,-0.95942 -1.88739,-2.24304 -0.7718,-5.83243 3.0208,-9.71944 1.39637,-1.43111 1.96515,-2.21469 1.51455,-2.08653 -0.39688,0.11289 -1.03907,0.29153 -1.42713,0.39697 -1.74286,0.4736 -6.14867,2.7062 -6.34375,3.21466 -0.43759,1.14028 -6.05145,10.27521 -9.47096,15.41125 -11.31718,16.99801 -20.56236,26.90354 -36.174497,38.75818 -2.20627,1.67529 -4.30971,3.04597 -4.67431,3.04597 -0.36456,0 -0.66287,-0.06 -0.66287,-0.1334 0,-0.0734 1.54782,-1.29318 3.43959,-2.71069 6.222787,-4.66274 9.359157,-7.41393 15.619267,-13.70098 6.14987,-6.17636 9.67359,-10.46986 15.30882,-18.65317 3.3715,-4.89597 9.74697,-14.99637 9.57461,-15.16871 -0.0695,-0.0695 -1.1327,0.38149 -2.36252,1.00232 -1.51504,0.76479 -2.92866,1.18437 -4.3838,1.30117 -2.01041,0.16138 -2.22666,0.10304 -3.38356,-0.91271 l -1.23585,-1.08512 -2.26536,0.95156 c -1.76191,0.74007 -2.84057,0.952 -4.85355,0.95356 -2.39963,0.002 -2.65021,-0.0701 -3.43959,-0.98779 -1.39724,-1.62442 -1.19739,-3.8797 0.57962,-6.54082 0.78708,-1.17863 2.38844,-2.94297 3.55864,-3.92075 1.17017,-0.97779 2.02766,-1.77779 1.9055,-1.77779 -0.99085,0 -6.1274,1.30448 -8.45993,2.14848 -2.17943,0.78861 -3.0202,1.28211 -3.46386,2.03316 -0.32219,0.54547 -1.62916,2.11864 -2.90431,3.49593 l -2.31845,2.50416 1.86249,-0.16899 c 3.5022,-0.31776 5.03833,1.48956 4.73149,5.56673 -0.58823,7.81565 -9.34854,17.82177 -27.623767,31.55223 -4.22759,3.17624 -5.58956,4.02107 -6.48254,4.02107 -1.05647,0 -0.88547,-0.18652 2.61292,-2.85002 8.78889,-6.69135 21.48702,-19.01052 24.805037,-24.06469 3.18996,-4.85909 3.58789,-8.57044 1.13982,-10.63036 -1.21937,-1.02603 -1.99944,-1.09745 -4.02322,-0.36836 -0.776107,0.2796 -2.029737,0.51076 -2.785877,0.51368 l -1.37478,0.005 3.11341,-2.91042 c 3.823367,-3.57409 5.888387,-6.5865 5.738067,-8.37052 -0.10206,-1.21115 -0.14196,-1.24196 -1.57314,-1.21451 -1.00644,0.0193 -2.50473,0.54945 -4.762497,1.68515 -3.09711,1.5579 -3.33463,1.7566 -3.97246,3.32322 -0.90448,2.22152 -4.83863,6.11963 -7.01505,6.95082 -2.77799,1.06092 -5.09189,-0.1836 -4.71057,-2.53354 0.23389,-1.4413 0.7729,-2.17628 1.9142,-2.6102 1.11944,-0.42561 2.82568,0.47829 3.12057,1.65314 l 0.22567,0.8992 1.00789,-0.96562 c 1.47136,-1.40967 2.20108,-3.59877 2.00159,-6.00463 -0.26773,-3.22847 -1.70632,-3.73791 -5.23872,-1.85517 -1.83522,0.97815 -2.12524,1.28639 -2.62431,2.78895 -1.04112,3.13448 -4.09554,6.66233 -7.12354,8.2277 -1.59857,0.82639 -4.02322,0.75725 -5.17341,-0.14751 -2.55429,-2.00918 0.41056,-7.25504 3.10321,-5.49074 1.28259,0.84037 1.46773,1.8856 0.55315,3.12263 l -0.77886,1.05349 0.83051,-0.25075 c 2.42538,-0.73227 5.11179,-5.34674 4.78751,-8.22363 -0.31069,-2.75665 -1.7726,-3.0882 -5.28842,-1.19938 -2.17135,1.16653 -4.3368,3.49912 -6.18296,6.66021 -1.55314,2.65932 -3.03763,4.15191 -4.90971,4.9364 -1.9038,0.7978 -1.91841,0.56635 -0.12026,-1.90554 3.19129,-4.38703 6.04315,-10.08191 5.38056,-10.74449 -0.75544,-0.75545 -3.45355,2.06521 -6.65004,6.95213 -14.56337,22.26505 -15.15272,23.02658 -26.90505,34.76605 -8.89184,8.88205 -15.20783,14.54612 -19.66376,17.63406 -2.2545,1.56234 -4.03144,2.22587 -3.98138,1.48668 0.01,-0.14552 1.20632,-1.11203 2.65881,-2.1478 9.14206,-6.51923 21.08719,-18.43951 29.39874,-29.3376 3.71835,-4.87552 7.86306,-11.01228 11.31743,-16.75695 1.40007,-2.32833 2.62932,-4.37247 2.73166,-4.54252 0.20687,-0.34368 0.13007,-0.29871 -2.90929,1.70373 -4.08746,2.69296 -7.88589,3.66652 -10.19697,2.61352 -2.12333,-0.96747 -2.60445,-5.46816 -0.94925,-8.88062 1.71492,-3.53558 6.16398,-6.82816 9.72284,-7.19546 1.78435,-0.18416 1.98441,-0.12522 2.99074,0.88111 1.38677,1.38677 1.40152,2.62787 0.0473,3.9821 -1.77341,1.77344 -4.19767,1.03796 -3.7217,-1.12911 0.2117,-0.96391 0.16228,-1.01469 -0.98774,-1.01469 -2.30173,0 -4.75026,2.33808 -5.08836,4.85889 -0.66573,4.96344 2.19195,6.71316 7.12484,4.36243 4.15883,-1.98186 6.17114,-3.86489 9.18721,-8.59705 4.51355,-7.08164 10.31177,-15.2514 12.58465,-17.73184 2.49188,-2.71943 5.74244,-5.13194 8.24237,-6.11732 2.04607,-0.80649 5.0897,-1.34088 5.08176,-0.89225 -0.0127,0.71167 -0.61514,1.09275 -2.01708,1.27572 -2.33807,0.30514 -4.49686,1.54882 -7.1036,4.09234 -2.88872,2.81868 -5.24831,6.2669 -11.91549,17.41287 -0.0827,0.1382 0.53005,-0.1377 1.36161,-0.61312 1.81586,-1.03818 3.69151,-1.16155 3.88518,-0.25553 0.0726,0.33955 0.0219,1.13218 -0.11278,1.7614 -0.26836,1.25425 -0.35892,1.26944 2.03203,-0.34095 2.85584,-1.92355 6.232,-2.58678 7.7512,-1.5227 0.4045,0.28332 0.94343,1.03738 1.19772,1.6757 0.25424,0.63831 0.4905,1.20298 0.525,1.2548 0.0346,0.0518 0.99931,-0.46974 2.14397,-1.15904 2.02107,-1.21704 4.91441,-2.28659 6.18561,-2.28659 1.96162,0 3.48036,1.7627 3.48036,4.03943 0,0.68873 0.0983,1.25224 0.21844,1.25224 0.12012,0 1.14399,-0.56226 2.27528,-1.24946 5.287007,-3.21169 9.475957,-4.46533 10.559237,-3.16007 0.24161,0.29115 0.51773,1.22527 0.61362,2.07583 l 0.1743,1.54646 2.18447,-0.99048 c 2.87564,-1.30388 7.23135,-2.67645 10.07195,-3.17388 1.4743,-0.25817 5.97948,-0.35817 12.7,-0.28189 10.31385,0.11706 10.43005,0.11029 11.94111,-0.69628 0.83925,-0.44797 1.78184,-0.76521 2.09461,-0.70497 0.45823,0.0882 0.36273,0.34932 -0.49145,1.34366 -1.90341,2.21573 -3.14131,4.02187 -2.5999,3.79328 6.89818,-2.91247 10.97537,-3.97761 17.47153,-4.56435 3.66098,-0.33066 5.68533,-0.32986 9.22013,0.004 2.49103,0.23504 4.88202,0.52111 5.31329,0.63571 l 0.78412,0.20837 -0.98866,1.46068 c -0.54377,0.80338 -1.09901,1.65036 -1.23391,1.8822 -0.13487,0.23183 1.4122,-0.40317 3.43792,-1.41111 2.02572,-1.00795 3.69655,-1.99885 3.71295,-2.20201 0.0635,-0.78592 2.77196,-2.98916 4.74504,-3.85992 4.75206,-2.09716 9.28786,-2.4218 17.26756,-1.23588 3.8312,0.56938 5.11217,0.63437 6.52628,0.33109 1.62175,-0.3478 1.77722,-0.47194 1.98624,-1.58609 0.23499,-1.25271 1.03308,-1.92288 2.28988,-1.92288 0.57359,0 0.72874,0.22403 0.72874,1.05214 0,0.75785 -0.41935,1.48861 -1.49931,2.61258 -2.70623,2.81659 -4.72373,3.03882 -19.31458,2.12744 -3.8553,-0.24081 -7.39987,0.35857 -10.3365,1.74788 -1.79387,0.84868 -1.80904,0.86847 -0.68781,0.89723 1.06529,0.0273 1.14653,0.11526 1.14653,1.24116 0,0.66646 -0.15483,1.61896 -0.34403,2.11666 -0.42654,1.12182 -0.35644,1.12125 1.29851,-0.0105 1.71545,-1.1731 4.83901,-2.74501 6.56851,-3.30556 2.39945,-0.7777 5.66917,0.27828 6.27288,2.02586 0.0894,0.25869 0.95144,-10e-4 2.41871,-0.72995 1.84401,-0.91552 2.80321,-1.15583 5.01732,-1.25702 2.65003,-0.12111 2.77156,-0.091 3.80555,0.943 0.72612,0.72612 1.06811,1.41567 1.06811,2.15358 0,0.59701 0.0744,1.08547 0.16538,1.08547 0.091,0 1.24192,-0.69348 2.55764,-1.54108 3.41266,-2.19841 5.20492,-3.04503 6.4462,-3.04503 1.43242,0 1.66458,0.71589 1.02651,3.16504 l -0.51417,1.97357 1.7738,-1.19543 c 3.43824,-2.31716 7.55731,-3.94318 9.98894,-3.94318 1.0965,0 2.89736,1.82145 2.89736,2.93047 v 0.86807 l 2.15858,-0.87189 c 2.68594,-1.0849 8.48155,-2.57387 10.01839,-2.57387 1.41845,0 1.79152,-0.32133 5.73388,-4.93889 11.85414,-13.88428 22.20902,-19.2771 26.29877,-13.69641 1.7345,2.36682 0.80684,6.82067 -1.93689,9.29949 -1.68882,1.52574 -2.67843,1.92748 -4.74804,1.92748 -1.70444,0 -2.66534,-0.37153 -3.9226,-1.51669 -1.04631,-0.95301 -1.06553,-3.14846 -0.0422,-4.82707 1.01755,-1.66918 1.66652,-2.0985 3.19204,-2.11169 1.56167,-0.0135 2.40643,0.73159 2.40643,2.12251 0,1.24393 -1.33963,2.26296 -2.6465,2.01314 -1.12053,-0.21421 -1.17725,0.5447 -0.0972,1.30118 1.22597,0.8587 2.66347,0.6837 3.81112,-0.46396 1.39143,-1.39141 1.63185,-2.58201 0.80921,-4.00704 -0.92562,-1.60334 -2.72161,-2.47552 -4.60845,-2.23797 -4.65638,0.58624 -13.11271,7.52312 -19.2152,15.76254 l -0.94245,1.27245 2.92287,0.22467 c 1.60758,0.12357 4.73365,0.54491 6.94683,0.93633 2.21319,0.39141 5.45271,0.96474 7.19896,1.27405 6.06517,1.07435 10.31808,0.2254 11.63574,-2.32265 0.37359,-0.72243 0.93691,-1.08722 2.15103,-1.39294 0.9047,-0.2278 1.73507,-0.32401 1.84531,-0.21378 0.42153,0.42156 -3.345,3.74869 -5.55583,4.90763 -3.68698,1.93277 -6.2145,2.44524 -10.95819,2.22185 -2.23132,-0.10508 -5.24757,-0.45307 -6.70278,-0.7733 -1.45521,-0.32023 -3.26718,-0.57954 -4.02657,-0.57623 -4.82138,0.021 -11.92788,3.67313 -15.48021,7.95557 -3.37866,4.07305 -4.1717,7.85757 -2.25389,10.7556 2.81005,4.24626 10.8417,5.88307 16.47112,3.35673 2.19622,-0.9856 4.33232,-2.98366 4.98563,-4.6634 0.95144,-2.44634 -0.012,-5.175 -2.13843,-6.05576 -1.46844,-0.60825 -1.78347,-0.4047 -2.44482,1.57968 -0.48638,1.45939 -0.76564,1.79523 -1.7163,2.06416 -2.51975,0.71279 -3.90038,-1.9627 -2.15674,-4.1794 1.61963,-2.05904 5.55565,-2.59738 8.41802,-1.15135 7.03992,3.55645 1.59681,13.6141 -8.83003,16.31597 -2.82494,0.73202 -7.87651,0.7513 -10.31819,0.0394 -2.89211,-0.84325 -4.97752,-2.34729 -5.90176,-4.25651 -0.68869,-1.42271 -0.77791,-2.06012 -0.64438,-4.60441 0.1324,-2.52195 0.34759,-3.34278 1.47415,-5.62216 2.40531,-4.86683 7.28507,-9.08207 13.40806,-11.58217 2.56537,-1.04747 2.70598,-1.15576 1.76728,-1.36087 -1.63725,-0.35774 -7.58137,-0.32006 -9.31016,0.059 -0.87313,0.19146 -2.74528,0.76181 -4.16038,1.26745 l -2.57288,0.91935 -1.01484,2.23822 c -1.32422,2.92047 -2.52373,4.45431 -4.927,6.30023 -4.22574,3.24573 -7.50622,4.06778 -9.34459,2.34166 -1.96162,-1.84184 -0.76312,-5.31837 1.8335,-5.31837 1.17312,0 1.84174,0.75136 1.84174,2.06971 0,1.75281 2.39949,1.10738 4.63543,-1.24688 2.46617,-2.59666 3.09083,-5.16668 1.68896,-6.94886 -1.03674,-1.318 -3.07043,-1.26523 -5.9092,0.15332 -3.24933,1.62371 -5.71938,4.35048 -9.40566,10.38321 -10.1558,16.62032 -20.48235,28.31001 -38.99764,44.14559 -6.02382,5.15197 -6.95247,5.83492 -7.76277,5.70875 -0.56744,-0.0884 0.1923,-0.86328 3.43405,-3.50269 9.21981,-7.50673 20.68103,-19.05806 27.61445,-27.83159 6.27514,-7.94051 13.58339,-19.03343 16.38544,-24.87083 2.48214,-5.17097 2.45021,-6.20898 -0.16271,-5.28709 -2.37676,0.83858 -4.14976,2.23259 -6.00819,4.72398 -1.63992,2.19844 -4.95462,5.25423 -6.85521,6.31972 -0.66153,0.37086 -0.64735,0.39621 0.22743,0.40627 1.16629,0.0134 5.32219,-1.25215 7.12689,-2.17029 1.57487,-0.80122 2.04227,-0.61042 1.08793,0.44412 -1.04355,1.1531 -6.00784,3.36223 -9.50058,4.22778 -4.21051,1.04343 -7.94647,0.99588 -13.47132,-0.17144 -4.99801,-1.05601 -6.68298,-1.11856 -9.28843,-0.34482 -2.22024,0.65933 -3.13531,1.5396 -6.29419,6.05489 -6.90611,9.87147 -21.20109,24.97702 -33.9393,35.86371 -2.17449,1.85845 -4.26289,3.37899 -4.64086,3.37899 -1.01702,0 -0.72023,-0.37783 2.19382,-2.79294 4.20003,-3.48089 12.1364,-11.12017 16.33954,-15.72788 9.82563,-10.77141 22.8268,-28.4496 26.771,-36.40164 2.26938,-4.57534 1.58919,-4.93156 -3.44012,-1.80165 -2.59189,1.61301 -2.98813,2.01729 -4.54688,4.63931 -10.86721,18.27974 -27.21409,35.03486 -50.6011,51.86473 -4.20053,3.02282 -6.04189,3.9731 -6.04189,3.1181 z m 66.675,-50.92185 c 0.6791,-0.15944 2.77023,-0.29368 4.64697,-0.29831 l 3.41221,-0.008 1.62433,-1.85208 c 1.90641,-2.17375 3.36927,-4.9295 3.36927,-6.3471 0,-1.32472 -1.41887,-2.73692 -2.74983,-2.73692 -1.54834,0 -4.92982,1.86971 -7.42308,4.1044 -2.17586,1.95024 -2.74193,2.68511 -4.81937,6.25663 l -0.99931,1.71797 0.85203,-0.27313 c 0.46863,-0.15022 1.40769,-0.40358 2.08678,-0.56303 z m 19.5011,-0.32833 c 2.10996,-1.39756 3.66889,-3.19373 4.70715,-5.42338 1.08292,-2.32563 1.06673,-3.53154 -0.0625,-4.66081 -0.76303,-0.76301 -1.09876,-0.8645 -2.18539,-0.66064 -0.70612,0.13247 -2.03317,0.62054 -2.94894,1.0846 -1.37876,0.69867 -1.81818,1.17826 -2.55573,2.7893 -0.57757,1.26156 -1.77984,2.82241 -3.41969,4.43967 -1.39097,1.37176 -2.47213,2.54646 -2.40263,2.61045 0.0695,0.064 1.63449,0.27003 3.47775,0.45786 1.84327,0.18783 3.44322,0.36432 3.55551,0.3922 0.11225,0.0279 0.93775,-0.43528 1.83448,-1.02925 z m -78.53969,-0.85524 c 1.11502,-0.44913 1.5288,-0.91104 2.30156,-2.56939 0.60346,-1.29502 1.84393,-2.92339 3.45073,-4.52979 l 2.5086,-2.50797 -2.63359,-0.23865 c -1.44847,-0.13126 -3.08067,-0.13133 -3.62712,-1.6e-4 -4.77242,1.14558 -9.17822,7.60012 -6.90351,10.11366 0.70711,0.78132 2.54857,0.68079 4.90333,-0.2677 z m 32.17746,-0.50875 c 1.09996,-0.56115 1.44212,-0.99068 1.79596,-2.25441 0.48909,-1.74683 2.56423,-4.4377 4.95684,-6.4276 l 1.5875,-1.32029 -3.70417,0.25669 c -4.0986,0.28402 -6.31666,1.15539 -7.98353,3.13637 -2.25623,2.68137 -3.08353,6.14601 -1.71274,7.17269 0.88099,0.65981 3.15972,0.40607 5.06014,-0.56345 z m -22.70414,0.3026 c 0.77611,-0.20542 2.24927,-0.71196 3.2737,-1.12564 1.77949,-0.71857 1.9726,-0.93254 4.32636,-4.79378 1.35509,-2.22289 2.42189,-4.07305 2.37074,-4.11146 -0.0512,-0.0384 -1.28365,0.0766 -2.73886,0.25568 -1.45521,0.17904 -3.31978,0.40311 -4.14344,0.49795 -1.70248,0.196 -3.04321,1.18759 -5.06628,3.74695 -1.35484,1.71404 -2.18892,3.80011 -1.86105,4.65461 0.17551,0.45731 1.40716,1.18581 2.07494,1.22729 0.19403,0.012 0.98778,-0.14617 1.76389,-0.3516 z m 33.43726,-0.60737 c 1.57794,-0.56364 1.84485,-0.85414 4.11928,-4.48325 1.75779,-2.80471 2.30752,-3.95036 1.98286,-4.13237 -0.24705,-0.13849 -1.70385,-0.35539 -3.23734,-0.482 l -2.78818,-0.23019 -1.98434,2.08524 c -5.35128,5.6234 -4.33722,9.47327 1.90772,7.24257 z M 8.7034435,308.61939 c -1.4532,-1.4532 -0.42425,-3.89562 1.6662095,-3.95506 1.50869,-0.0429 2.21435,0.61293 2.21435,2.05798 0,1.42591 -1.03675,2.60263 -2.29306,2.60263 -0.4850695,0 -1.1994395,-0.3175 -1.5874995,-0.70555 z M -284.17955,306.10331 c -2.0762,-0.30499 -4.8627,-1.56546 -7.65965,-3.46483 -1.74729,-1.18656 -2.18948,-1.35797 -2.3596,-0.91465 -0.24845,0.64744 -1.92656,0.72842 -2.53275,0.12223 -0.68352,-0.68352 -0.4903,-1.58945 0.50618,-2.37329 0.72884,-0.5733 1.4363,-0.73116 3.2768,-0.73116 2.75993,0 3.88671,0.49162 7.23702,3.15754 2.67401,2.12778 3.98189,2.45322 7.26393,1.80752 2.31057,-0.45458 3.33612,-0.30272 3.66027,0.54198 0.54218,1.41291 -1.30335,2.60002 -3.02466,1.94558 -0.51521,-0.19588 -1.74113,-0.23821 -2.80846,-0.097 -1.04177,0.13785 -2.64336,0.14057 -3.55908,0.006 z m 563.82948,-0.22455 c -0.6162,-0.49895 -0.74648,-0.84943 -0.54818,-1.47431 0.25163,-0.79274 0.34314,-0.81077 2.77886,-0.54711 4.86834,0.52699 4.35409,0.69321 9.48712,-3.06664 1.79345,-1.31364 2.29668,-1.50363 4.32509,-1.63279 2.72482,-0.1735 4.32339,0.37022 4.62534,1.57322 0.39652,1.57989 -1.30825,2.51656 -2.46853,1.35629 -0.4778,-0.4778 -0.7947,-0.36655 -2.97653,1.04486 -4.27655,2.76647 -6.74317,3.37687 -11.88494,2.9411 -0.19403,-0.0164 -0.84265,0.0803 -1.44134,0.21502 -0.80286,0.18064 -1.3007,0.0731 -1.89689,-0.40964 z m 0.5412,-4.16374 c -1.31329,-1.31329 0.008,-3.04383 2.64544,-3.46562 3.12219,-0.49926 4.17752,-1.66977 5.43094,-6.02356 1.18978,-4.13286 3.05058,-6.47579 5.73532,-7.22135 2.2902,-0.63599 4.78621,-0.27308 5.4651,0.79461 0.41014,0.64502 0.32579,2.16945 -0.14616,2.6414 -0.5316,0.53158 -1.78005,0.54829 -2.29761,0.0307 -0.2159,-0.21593 -0.56349,-0.28697 -0.77237,-0.15788 -0.20888,0.1291 -1.6644,2.13011 -3.23451,4.44669 -3.18368,4.69731 -4.92559,6.39997 -7.38226,7.21594 -0.91497,0.3039 -2.03155,0.94424 -2.4813,1.42298 -0.93451,0.99475 -2.15382,1.12483 -2.96259,0.31605 z m -559.32784,-0.65214 c -0.45837,-0.48791 -1.59174,-1.13899 -2.51859,-1.44684 -2.46046,-0.81724 -4.50073,-2.82143 -7.74485,-7.60791 -1.58407,-2.33719 -3.10581,-4.33604 -3.38165,-4.44189 -0.27583,-0.10585 -0.73,-0.003 -1.00926,0.22894 -0.55128,0.45752 -1.95731,0.17599 -2.38829,-0.4782 -0.56941,-0.86435 -0.26782,-2.31885 0.59852,-2.8865 2.36181,-1.54752 5.91065,-0.88445 8.35001,1.56012 1.36134,1.36424 1.79039,2.14044 2.56321,4.63712 1.79935,5.81296 2.56579,6.74197 5.97794,7.24592 0.96805,0.14297 2.11141,0.59907 2.63865,1.05258 0.81213,0.69857 0.88564,0.92826 0.57836,1.80714 -0.49849,1.42579 -2.46779,1.60289 -3.66405,0.32952 z m 16.20275,-12.81641 c 7e-4,-0.14552 0.39768,-1.04555 0.88194,-2.00006 0.97155,-1.91501 1.08299,-2.90211 0.47765,-4.23069 -0.77317,-1.69691 1.47735,-3.66862 2.74289,-2.40308 1.10402,1.10402 0.0607,5.55147 -1.82921,7.79749 -0.82951,0.98583 -2.27708,1.51839 -2.27327,0.83634 z m 50.09446,0 c 7e-4,-0.14552 0.39768,-1.04555 0.88194,-2.00006 0.97155,-1.91501 1.08299,-2.90211 0.47765,-4.23069 -0.77317,-1.69691 1.47736,-3.66862 2.7429,-2.40308 1.10402,1.10402 0.0607,5.55147 -1.82921,7.79749 -0.82952,0.98583 -2.27709,1.51839 -2.27328,0.83634 z m 152.045748,0.0628 c 0,-0.11097 0.41111,-0.90326 0.91357,-1.76065 0.78422,-1.33818 0.8966,-1.88995 0.79375,-3.89737 -0.11242,-2.19395 -0.0609,-2.383 0.83403,-3.05857 0.82373,-0.62185 1.03398,-0.65357 1.54133,-0.2325 1.27572,1.05875 0.009,6.4706 -1.98065,8.45994 -0.62988,0.62988 -2.10203,0.97246 -2.10203,0.48915 z m 114.299975,-0.10836 c 0,-0.17058 0.40079,-1.18557 0.89062,-2.25553 0.81524,-1.78071 0.85446,-2.08063 0.4633,-3.5431 -0.4693,-1.75468 -0.14629,-2.52623 1.27967,-3.05655 1.25106,-0.46529 1.59974,-0.0453 1.59974,1.92677 0,2.19757 -0.7282,4.4461 -1.96515,6.0678 -0.81206,1.06467 -2.26818,1.61716 -2.26818,0.86061 z m 49.388887,0.12726 c 0,-0.10058 0.41264,-0.97206 0.91701,-1.93662 0.79287,-1.51637 0.8872,-2.0288 0.69691,-3.78587 -0.23809,-2.19847 -0.10262,-2.58244 1.14265,-3.23851 1.775,-0.93516 2.35429,1.25158 1.28524,4.8515 -0.61306,2.06432 -2.36379,4.29239 -3.37281,4.29239 -0.36794,0 -0.669,-0.0823 -0.669,-0.18289 z m 126.29444,-0.0189 c 0,-0.11097 0.41779,-0.91465 0.9284,-1.78596 0.83087,-1.41779 0.9046,-1.81663 0.70168,-3.797 -0.23689,-2.31244 0.052,-2.9397 1.60733,-3.48929 2.31069,-0.81653 1.4031,6.04461 -1.13538,8.5831 -0.62989,0.62988 -2.10203,0.97246 -2.10203,0.48915 z m -485.42221,-1.24816 c 0,-1.50507 1.97352,-5.08236 3.50283,-6.34938 1.57633,-1.30596 2.97278,-1.27973 3.12866,0.0588 0.0844,0.7246 -0.31735,1.26996 -2.03781,2.76637 -1.17859,1.02511 -2.45943,2.48428 -2.8463,3.24261 -0.86404,1.69366 -1.74738,1.83602 -1.74738,0.28162 z m 50.09447,0 c 0,-1.50507 1.97352,-5.08236 3.50283,-6.34938 1.57633,-1.30596 2.97279,-1.27973 3.12866,0.0588 0.0844,0.7246 -0.31735,1.26996 -2.03781,2.76637 -1.17859,1.02511 -2.45942,2.48428 -2.84629,3.24261 -0.86405,1.69366 -1.74739,1.83602 -1.74739,0.28162 z m 152.289748,0.86931 c -0.47277,-0.47277 -0.22974,-1.58133 0.78366,-3.57458 1.81611,-3.57207 4.49329,-5.57177 5.54107,-4.13885 0.63174,0.86396 0.0435,1.88663 -1.95813,3.40439 -0.86046,0.65244 -1.9751,1.88836 -2.47696,2.74649 -0.92055,1.57399 -1.44474,2.00745 -1.88964,1.56255 z m 113.939865,-0.007 c -1.24192,-1.24189 3.31544,-8.23148 5.36705,-8.23148 0.36375,0 0.8629,0.24283 1.1092,0.53962 0.66467,0.80089 -0.0497,2.07698 -1.77122,3.1637 -0.79015,0.4988 -1.99171,1.77462 -2.67011,2.83513 -1.20382,1.88186 -1.55441,2.17355 -2.03492,1.69303 z m 49.603267,-1.17926 c 0.56324,-4.19915 6.15724,-9.2447 6.54173,-5.90033 0.0818,0.71171 -0.144,1.1887 -0.83502,1.76389 -2.36175,1.96583 -3.34476,2.99262 -3.96325,4.13978 -0.36615,0.6791 -0.95306,1.29049 -1.30422,1.35865 -0.55866,0.10843 -0.61359,-0.0619 -0.43924,-1.36199 z m 126.44017,1.18661 c -1.27839,-1.27839 3.24968,-8.23883 5.35972,-8.23883 0.95649,0 1.51754,0.82324 1.18103,1.73293 -0.15575,0.42105 -1.06112,1.35432 -2.01189,2.07395 -0.95077,0.71962 -2.13886,2.01067 -2.64019,2.86901 -0.91948,1.5742 -1.44364,2.00797 -1.88867,1.56294 z m -494.6613,-1.53721 c -0.1203,-0.19466 0.24918,-1.3456 0.82108,-2.55764 0.5719,-1.21203 1.31149,-2.96403 1.64353,-3.89333 0.79414,-2.22256 2.1694,-3.84714 3.1392,-3.70827 1.15066,0.16476 0.83031,1.8748 -0.7791,4.15886 -0.75362,1.06953 -1.72925,2.65897 -2.16807,3.5321 -1.24383,2.47486 -2.13871,3.3063 -2.65664,2.46828 z m 50.09447,0 c -0.1203,-0.19466 0.24918,-1.3456 0.82108,-2.55764 0.5719,-1.21203 1.31149,-2.96403 1.64353,-3.89333 0.79414,-2.22256 2.16941,-3.84714 3.1392,-3.70827 1.15066,0.16476 0.83031,1.8748 -0.7791,4.15886 -0.75362,1.06953 -1.72925,2.65897 -2.16807,3.5321 -1.24382,2.47486 -2.13871,3.3063 -2.65664,2.46828 z m 152.040768,-0.0105 c -0.12387,-0.20041 0.12209,-0.95302 0.54658,-1.67246 0.42448,-0.71945 1.16786,-2.42078 1.65196,-3.78075 0.93612,-2.62984 2.61447,-4.76574 3.74483,-4.76574 0.58502,0 0.65343,0.17917 0.47896,1.25435 -0.11196,0.68989 -0.75929,2.02788 -1.43851,2.97331 -0.67923,0.94543 -1.63404,2.50653 -2.12182,3.46912 -1.27947,2.52491 -2.3029,3.42682 -2.862,2.52217 z m 114.130755,-0.17651 c 0,-0.29749 0.37493,-1.28968 0.83316,-2.20486 0.45826,-0.91518 1.11082,-2.51189 1.45016,-3.54824 1.11037,-3.39104 4.06668,-5.75606 4.06668,-3.2533 0,0.6476 -0.5891,1.89653 -1.57131,3.33117 -0.86423,1.26233 -1.96811,3.07818 -2.45307,4.03522 -0.74341,1.46706 -1.45634,2.18091 -2.17809,2.18091 -0.0811,0 -0.14753,-0.24341 -0.14753,-0.5409 z m 49.585457,0.22076 c -0.1215,-0.19656 0.23876,-1.2765 0.80052,-2.39987 0.56176,-1.12337 1.2832,-2.84228 1.60316,-3.81981 0.67459,-2.06085 2.33049,-4.04352 3.37708,-4.04352 1.42088,0 0.96019,1.4613 -1.7997,5.7088 -0.8425,1.29657 -1.8493,2.8729 -2.23735,3.50295 -0.76267,1.23828 -1.39326,1.61852 -1.74371,1.05145 z m 126.28527,-0.0148 c -0.11388,-0.18425 0.19872,-1.09706 0.69469,-2.02848 0.49597,-0.93141 1.23105,-2.6193 1.6335,-3.75086 0.84011,-2.36211 2.52053,-4.46901 3.56433,-4.46901 0.62247,0 0.68879,0.16263 0.51163,1.25435 -0.11197,0.68989 -0.75928,2.02788 -1.43852,2.97331 -0.67921,0.94543 -1.63403,2.50653 -2.12182,3.46912 -1.26266,2.49178 -2.30357,3.42571 -2.84381,2.55157 z m -32.50879,-0.79168 c -0.12065,-0.19519 0.12174,-0.77559 0.53858,-1.2898 0.41685,-0.51421 1.21822,-1.6493 1.78083,-2.52242 1.84686,-2.86618 2.49392,-3.5029 3.96134,-3.89804 2.55877,-0.689 2.46524,0.057 -0.38837,3.09874 -1.41359,1.50677 -2.93981,3.15471 -3.39165,3.6621 -0.91013,1.02206 -2.1621,1.49737 -2.50073,0.94942 z"
       id="path849" />
  </g>
</svg>
