<?xml version="1.0" encoding="UTF-8" standalone="no"?>
<svg
   xmlns:dc="http://purl.org/dc/elements/1.1/"
   xmlns:cc="http://creativecommons.org/ns#"
   xmlns:rdf="http://www.w3.org/1999/02/22-rdf-syntax-ns#"
   xmlns:svg="http://www.w3.org/2000/svg"
   xmlns="http://www.w3.org/2000/svg"
   xmlns:sodipodi="http://sodipodi.sourceforge.net/DTD/sodipodi-0.dtd"
   xmlns:inkscape="http://www.inkscape.org/namespaces/inkscape"
   version="1.1"
   id="svg885"
   width="128.96001"
   height="183.03999"
   viewBox="0 0 128.96001 183.03999"
   sodipodi:docname="viper.svg"
   inkscape:version="1.0.1 (3bc2e81, 2020-09-07)">
  <metadata
     id="metadata891">
    <rdf:RDF>
      <cc:Work
         rdf:about="">
        <dc:format>image/svg+xml</dc:format>
        <dc:type
           rdf:resource="http://purl.org/dc/dcmitype/StillImage" />
        <dc:title></dc:title>
      </cc:Work>
    </rdf:RDF>
  </metadata>
  <defs
     id="defs889" />
  <sodipodi:namedview
     pagecolor="#ffffff"
     bordercolor="#666666"
     borderopacity="1"
     objecttolerance="10"
     gridtolerance="10"
     guidetolerance="10"
     inkscape:pageopacity="0"
     inkscape:pageshadow="2"
     inkscape:window-width="1920"
     inkscape:window-height="1028"
     id="namedview887"
     showgrid="false"
     inkscape:zoom="4.627404"
     inkscape:cx="55.727796"
     inkscape:cy="127.82655"
     inkscape:window-x="0"
     inkscape:window-y="1108"
     inkscape:window-maximized="1"
     inkscape:current-layer="g893" />
  <g
     inkscape:groupmode="layer"
     inkscape:label="Image"
     id="g893"
     style="display:inline">
    <path
       style="fill:#000000;stroke-width:0.0499271"
       d="m -38.154795,200.40575 c -0.197958,-0.24515 -0.371528,-0.43753 -0.3487,-0.38648 0.01228,0.0275 0.0023,0.0949 -0.02224,0.14978 -0.02884,0.0646 -0.03557,-0.0235 -0.01907,-0.24963 0.01403,-0.19222 0.02604,-0.54047 0.0267,-0.77387 l 0.0012,-0.42438 1.79653,-1.5162 1.796531,-1.5162 2.49e-4,-0.58074 c 10e-5,-0.31941 0.01494,-0.83617 0.03293,-1.14838 l 0.03271,-0.56763 -0.528191,0.0196 c -0.427985,0.0158 -0.5478,0.0373 -0.631552,0.11309 -0.172555,0.15616 -0.541325,0.16203 -0.83131,0.0132 -0.242894,-0.12465 -0.269948,-0.12711 -1.781896,-0.16175 l -1.53528,-0.0352 v 0.13133 c 0,0.0722 -0.02247,0.13132 -0.04993,0.13132 -0.02746,0 -0.04993,-0.0542 -0.04993,-0.12055 0,-0.11337 -0.01934,-0.12156 -0.3243,-0.1373 -0.261803,-0.0135 -0.338776,1.5e-4 -0.399417,0.0712 -0.04131,0.0484 -0.07563,0.11577 -0.07625,0.14978 -6.24e-4,0.034 -0.03713,-0.0112 -0.08113,-0.10043 -0.0697,-0.14139 -0.104878,-0.16226 -0.273462,-0.16226 -0.173086,0 -0.193472,0.0131 -0.193472,0.12482 0,0.0686 -0.02247,0.12482 -0.04993,0.12482 -0.02746,0 -0.04993,-0.0562 -0.04993,-0.12482 0,-0.11801 -0.01498,-0.12482 -0.274599,-0.12482 h -0.274601 v 0.17474 c 0,0.15811 -0.01331,0.17475 -0.139796,0.17475 -0.07689,0 -0.166757,-0.027 -0.199708,-0.0599 -0.04492,-0.0449 -0.05991,-0.65546 -0.05991,-2.44032 0,-2.07177 0.0099,-2.38858 0.0761,-2.44355 0.04185,-0.0347 0.083,-0.0543 0.09145,-0.0436 0.162884,0.20796 0.18224,0.29195 0.188298,0.81706 0.0035,0.30281 0.02034,0.79231 0.03745,1.08777 l 0.03109,0.5372 0.511683,-0.38742 0.511683,-0.38742 7e-5,-0.71146 c 5e-5,-0.52011 -0.01604,-0.71146 -0.05984,-0.71146 -0.0466,0 -0.0466,-0.0133 0,-0.0599 0.03295,-0.033 0.05991,-0.1215 0.05991,-0.19676 0,-0.17124 0.0852,-0.22873 0.187448,-0.12648 0.06484,0.0648 0.07629,0.20569 0.06783,0.83405 -0.0082,0.60765 0.0025,0.74844 0.0545,0.71728 0.188113,-0.11277 3.290751,-2.5088 3.465148,-2.67599 l 0.205138,-0.19666 0.02738,-0.75791 c 0.0363,-1.00452 0.203028,-2.13293 0.402653,-2.72508 0.171642,-0.50915 0.28824,-0.64721 0.409144,-0.48445 0.179379,0.24148 0.500819,1.5508 0.575672,2.34488 0.02294,0.24336 0.05362,0.45439 0.06818,0.46894 0.06965,0.0697 0.170966,-0.11927 0.201736,-0.37618 0.0488,-0.40742 0.188993,-0.94719 0.529242,-2.03763 0.419869,-1.3456 0.568939,-2.08007 0.819863,-4.0395 0.07033,-0.5492 0.171888,-1.17828 0.225685,-1.39796 0.09423,-0.38476 0.134385,-0.66604 0.171082,-1.19825 0.0095,-0.1373 0.04161,-0.3824 0.07143,-0.54466 0.04691,-0.25528 0.04331,-0.303 -0.02674,-0.35422 -0.07334,-0.0536 -0.07204,-0.0616 0.01381,-0.0843 0.07532,-0.02 0.113312,-0.12023 0.185221,-0.48881 0.132472,-0.67901 0.396788,-1.5611 0.629205,-2.09983 0.174776,-0.40511 0.204468,-0.5255 0.208839,-0.84671 0.0056,-0.40852 0.05999,-0.67697 0.111357,-0.5492 0.01656,0.0412 0.03804,0.28833 0.04773,0.5492 0.01578,0.42478 0.03911,0.52398 0.22341,0.95002 0.242026,0.55948 0.424655,1.1609 0.583271,1.92078 0.0851,0.4077 0.135627,0.55336 0.196095,0.56534 0.10351,0.0205 0.107,0.10868 0.0043,0.10868 -0.08097,0 -0.07564,0.11374 0.02691,0.57416 0.02446,0.10984 0.05643,0.40191 0.07103,0.64905 0.0146,0.24714 0.07206,0.62703 0.127684,0.8442 0.05562,0.21716 0.157227,0.83501 0.225791,1.37299 0.131765,1.03388 0.332303,2.27571 0.448207,2.77552 0.03821,0.16476 0.203914,0.73767 0.368236,1.27314 0.412279,1.34348 0.556743,1.89998 0.556743,2.14469 0,0.18562 0.113416,0.40467 0.176736,0.34135 0.01222,-0.0122 0.06729,-0.3602 0.122413,-0.77331 0.152576,-1.14356 0.443051,-2.16207 0.616613,-2.16207 0.104674,0 0.157044,0.0857 0.305109,0.49927 0.184948,0.51659 0.378317,1.80693 0.41836,2.79168 l 0.03333,0.81957 1.722485,1.31933 c 0.947366,0.72562 1.784891,1.3642 1.861166,1.41905 l 0.138681,0.0997 -0.0056,-0.72378 c -0.0055,-0.71956 0.03885,-0.96181 0.168454,-0.91929 0.03247,0.0107 0.06663,0.085 0.07593,0.1653 0.0093,0.0803 0.03847,0.17201 0.06483,0.20389 0.03095,0.0374 0.02938,0.0694 -0.0044,0.0903 -0.03261,0.0202 -0.05137,0.29018 -0.04976,0.71591 l 0.0026,0.68355 0.509162,0.38488 0.509163,0.38488 0.03092,-0.35992 c 0.017,-0.19795 0.03386,-0.68827 0.03745,-1.0896 0.0059,-0.66029 0.01651,-0.74238 0.111481,-0.86313 0.08036,-0.10216 0.120511,-0.12051 0.171337,-0.0783 0.05253,0.0436 0.07063,0.0205 0.08676,-0.11046 0.0112,-0.091 0.02398,0.99845 0.02837,2.42112 0.0053,1.71375 -0.0089,2.57626 -0.04194,2.55582 -0.02746,-0.017 -0.04993,-0.007 -0.04993,0.022 0,0.0291 -0.07863,0.0529 -0.174745,0.0529 -0.166422,0 -0.174745,-0.008 -0.174745,-0.17475 v -0.17474 h -0.271282 c -0.257617,0 -0.27233,0.007 -0.292082,0.1373 l -0.0208,0.1373 -0.0075,-0.1396 c -0.0071,-0.13323 -0.01788,-0.13906 -0.235299,-0.12781 -0.205955,0.0107 -0.230511,0.0253 -0.255876,0.15208 -0.0293,0.14652 -0.115431,0.19531 -0.115431,0.0654 0,-0.0412 -0.02247,-0.0749 -0.04993,-0.0749 -0.02746,0 -0.04988,-0.0281 -0.04982,-0.0624 10e-5,-0.0455 -0.09368,-0.058 -0.346558,-0.0459 -0.332236,0.0158 -0.347519,0.022 -0.367084,0.14978 l -0.02041,0.13332 -0.0075,-0.1373 -0.0075,-0.1373 -0.686497,0.004 c -0.377574,0.002 -1.106044,0.0196 -1.618825,0.0387 -0.810446,0.0302 -0.945811,0.0469 -1.035482,0.12807 -0.05984,0.0541 -0.207312,0.10336 -0.351224,0.11719 -0.198775,0.0191 -0.285688,9.3e-4 -0.437368,-0.0913 -0.156722,-0.0953 -0.278733,-0.11888 -0.709019,-0.13693 l -0.519722,-0.0218 0.03271,0.56763 c 0.01799,0.3122 0.03281,0.82739 0.03293,1.14486 l 3.12e-4,0.57722 1.789825,1.51029 1.789825,1.51029 0.03105,0.60855 c 0.01708,0.33471 0.04591,0.68719 0.06408,0.7833 0.02267,0.11996 0.01682,0.15909 -0.01865,0.12482 -0.02843,-0.0275 -0.05948,-0.0899 -0.06901,-0.13867 -0.01303,-0.0667 -0.07187,-0.0202 -0.236942,0.18718 -0.143439,0.18022 -0.238684,0.26072 -0.274599,0.2321 -0.03024,-0.0241 -0.240339,-0.0541 -0.466884,-0.0666 -0.329766,-0.0182 -0.411898,-0.009 -0.411898,0.0468 0,0.0383 -0.02283,0.0555 -0.05074,0.0382 -0.02791,-0.0172 -0.03782,-0.0523 -0.02202,-0.0778 0.0158,-0.0256 -0.01192,-0.0468 -0.06159,-0.0472 -0.283918,-0.002 -2.074774,-0.15081 -2.114647,-0.17545 -0.02623,-0.0162 -0.04767,-0.10386 -0.04767,-0.1948 v -0.16535 l -0.399417,-0.0349 -0.399416,-0.0348 -0.0066,-1.08248 c -0.005,-0.81958 -0.01614,-0.9976 -0.04602,-0.73299 -0.08367,0.74123 -0.171066,1.12167 -0.406524,1.76972 -0.134152,0.36924 -0.268223,0.70063 -0.297936,0.73643 -0.07505,0.0904 -1.155525,0.092 -1.230389,0.002 -0.07147,-0.0861 -0.489959,-1.25003 -0.560675,-1.55938 -0.03139,-0.1373 -0.08631,-0.48554 -0.122063,-0.77387 l -0.065,-0.52423 -0.0054,1.07913 -0.0054,1.07912 -0.23164,0.0318 c -0.127403,0.0175 -0.30714,0.0317 -0.399417,0.0317 -0.162454,0 -0.167776,0.006 -0.167776,0.19971 0,0.12573 -0.02312,0.20024 -0.06241,0.20113 -0.03432,7.8e-4 -0.478052,0.0339 -0.98606,0.0735 -0.508008,0.0396 -0.974202,0.0727 -1.035987,0.0735 -0.07165,9.4e-4 -0.112336,0.032 -0.112336,0.0859 0,0.0748 -0.0071,0.0758 -0.06241,0.008 -0.04966,-0.0606 -0.146555,-0.0716 -0.474307,-0.0542 -0.226544,0.0121 -0.411899,0.042 -0.411899,0.0666 0,0.0821 -0.07386,0.045 -0.185393,-0.0931 z"
       id="path897" />
    <text
       xml:space="preserve"
       style="font-size:16px;line-height:1.25;font-family:sans-serif;text-align:center;text-anchor:middle"
       x="45.809078"
       y="177.69643"
       id="text901"><tspan
         sodipodi:role="line"
         id="tspan899"
         x="45.809078"
         y="177.69643" /></text>
    <g
       aria-label="VIPER"
       id="text905"
       style="font-size:11.1969px;line-height:1.25;font-family:sans-serif;text-align:center;text-anchor:middle;stroke-width:0.699809"
       transform="translate(2.4816466,-4.3751545)">
      <path
         d="m -16.804223,182.3316 q 0,0.77259 -0.268725,1.92587 -0.246332,1.03011 -0.582239,1.83629 -0.559845,1.36602 -1.343628,2.57528 -0.481467,0.7278 -1.55637,1.92587 -1.522778,1.69073 -2.183395,1.69073 -0.223938,0 -0.459073,-0.21274 -0.156757,-0.15675 -0.537451,-0.66061 -0.660617,-0.88456 -1.153281,-1.93707 -0.17915,-0.3695 -0.906949,-2.12741 -0.04479,-0.11197 -0.201544,-0.55984 l -0.179151,-0.51506 q -0.246331,-0.70541 -0.369497,-1.01892 -0.212741,-0.54865 -0.425483,-0.98533 -0.380694,-0.75019 -0.492663,-0.90695 -0.335907,-0.42548 -0.839768,-0.42548 -0.05598,0 -0.08957,0.0224 -0.03359,0.0224 -0.08957,0.0224 -0.369498,0 -0.369498,-0.27992 0,-0.27993 1.007721,-0.69421 0.906949,-0.3695 1.142084,-0.3695 0.503861,0 1.074902,0.96293 0.638224,1.07491 1.0861,2.09383 0.246332,0.54864 0.716601,1.82509 0.268726,0.75019 0.783783,2.12741 0.694208,1.74672 0.974131,1.60116 0.201544,-0.12317 0.358301,-0.30232 0.380694,-0.44787 0.683011,-0.96293 0.212741,-0.3695 0.425482,-0.75019 0.08957,-0.14556 0.772586,-1.55637 0.257529,-0.63823 0.783783,-1.93707 0.369498,-0.87336 0.369498,-1.23166 0,-0.3359 -0.223938,-0.44787 -0.212741,-0.0448 -0.436679,-0.10077 -0.212742,-0.056 -0.212742,-0.25753 0,-0.30232 1.097297,-0.70541 0.962933,-0.3583 1.209265,-0.3583 0.436679,0 0.436679,0.69421 z"
         style="font-style:normal;font-variant:normal;font-weight:normal;font-stretch:normal;font-size:11.1969px;font-family:AnironC;-inkscape-font-specification:'AnironC, Normal';font-variant-ligatures:normal;font-variant-caps:normal;font-variant-numeric:normal;font-variant-east-asian:normal;stroke-width:0.699809"
         id="path965" />
      <path
         d="m -10.354818,191.737 q 0,0.12316 -0.223938,0.23513 -0.167953,0.0784 -0.279922,0.0896 -0.369498,0.056 -1.108493,0.11196 -0.04479,0 -0.537452,0.0448 -0.447876,0.0448 -0.492663,0.0448 -0.167954,0 -0.369498,-0.0784 -0.235135,-0.0784 -0.268726,-0.20154 -0.111969,-0.41429 -0.111969,-0.55985 v -2.10501 q 0,-0.0336 0.02239,-0.26873 0.03359,-0.23514 0.03359,-0.26873 v -0.67181 q 0,0.0336 -0.02239,-0.30232 -0.0112,-0.29112 0,-0.44787 0,-0.20155 0.04479,-0.63823 0.03359,-0.40308 0.03359,-0.42548 v -0.81737 l 0.02239,-1.25405 q -0.04479,-0.3919 -0.04479,-0.82858 0,-0.91814 -0.391891,-1.0637 -0.167954,-0.056 -0.97413,-0.14556 -0.604633,-0.0672 -0.604633,-0.22394 0,-0.11197 0.291119,-0.20154 0.201545,-0.0672 0.32471,-0.0784 1.937064,-0.15676 2.272971,-0.15676 0.29112,0 0.660617,0.12317 0.459073,0.16795 0.459073,0.39189 v 3.12394 q 0,-0.0224 -0.0112,0.52625 -0.0112,0.53745 -0.0112,0.77259 0,0.0896 -0.02239,0.30231 -0.0112,0.20155 -0.0112,0.22394 v 2.5417 q 0,0.0224 0.05598,0.20154 0.05598,0.17915 0.05598,0.21274 v 0.68301 q 0,0.17915 0.08957,0.49267 0.111969,0.40308 0.257529,0.41428 0.257529,0 0.772586,0.056 0.08957,0.0224 0.08957,0.14556 z"
         style="font-style:normal;font-variant:normal;font-weight:normal;font-stretch:normal;font-size:11.1969px;font-family:AnironC;-inkscape-font-specification:'AnironC, Normal';font-variant-ligatures:normal;font-variant-caps:normal;font-variant-numeric:normal;font-variant-east-asian:normal;stroke-width:0.699809"
         id="path967" />
      <path
         d="m 4.8841581,185.53391 q 0,0.056 -0.05598,0.29112 -0.06718,0.29112 -0.07838,0.3695 -0.190348,1.29884 -1.4444,2.66486 -1.1308873,1.24286 -2.6760596,2.09382 -1.5339753,0.83977 -2.6648622,0.83977 -0.3694978,0 -0.8397676,-0.22394 -0.559845,-0.25753 -0.559845,-0.60463 0,-0.3583 0.5374512,-0.67181 0.4366791,-0.24634 0.6270265,-0.24634 0.055985,0 0.6158295,0.19035 0.559845,0.19035 0.6158295,0.19035 0.1903473,0 0.5934357,-0.17915 0.4142853,-0.19035 0.6382233,-0.3807 1.0860994,-0.92934 1.7803072,-2.21698 0.6830105,-1.25406 0.6830105,-2.26178 0,-0.73899 -0.4366787,-1.38841 -0.4814667,-0.7278 -1.3100373,-0.95174 -0.8173738,-0.23513 -0.9629335,-0.23513 -0.783783,0 -2.5640902,1.04131 -1.7691102,1.03011 -1.8474885,1.55637 -0.067181,0.3583 -0.067181,0.94054 0,0.0672 0.044788,0.60463 0.055985,0.52625 0.055985,0.58224 v 4.13165 q 0,0.056 0.011197,0.20155 0.011197,0.14556 0.011197,0.21274 v 3.65019 q 0,0.75019 -1.0860994,1.36602 -0.8845551,0.51506 -1.4108094,0.51506 -0.1567566,0 -0.3135132,-0.0784 -0.1567566,-0.0784 -0.1567566,-0.19035 0,-0.0672 0.1679535,-0.25753 0.2463318,-0.26872 0.2911194,-0.3359 0.1007721,-0.15676 0.111969,-0.42549 0.033591,-8.61041 -0.089575,-10.18917 -0.033591,-0.3919 -0.033591,-1.36603 l -0.022394,-1.29884 q 0,-0.22393 -0.5038605,-0.36949 l -1.1420839,0.19034 q -1.0189179,-0.16795 -1.0189179,-0.50386 0,-0.23513 0.3806946,-0.3471 0.2463318,-0.0336 0.4926636,-0.0784 0.4478761,-0.12317 1.3324312,-0.33591 0.4814667,-0.14556 0.9741303,-0.29112 0.6606171,-0.19034 1.1756746,-0.19034 0.783783,0 0.783783,0.83976 0,0.11197 -0.022394,0.32471 -0.011197,0.21275 -0.011197,0.31352 0,0.55984 0.4366791,0.55984 0.111969,0 0.8061768,-0.43668 0.3471039,-0.23513 0.7054047,-0.45907 0.4926637,-0.25753 0.9965242,-0.52625 0.671814,-0.35831 1.0972962,-0.44788 0.9517365,-0.21274 1.8810793,-0.21274 0.6942078,0 1.1756743,0.16795 0.403088,0.13436 0.828571,0.59344 0.100772,0.10077 0.638223,0.75019 0.279922,0.3471 0.571042,1.27645 0.257529,0.85096 0.257529,1.24285 z"
         style="font-style:normal;font-variant:normal;font-weight:normal;font-stretch:normal;font-size:11.1969px;font-family:AnironC;-inkscape-font-specification:'AnironC, Normal';font-variant-ligatures:normal;font-variant-caps:normal;font-variant-numeric:normal;font-variant-east-asian:normal;stroke-width:0.699809"
         id="path969" />
      <path
         d="m 15.890702,183.07059 q 0,0.31352 -0.347104,0.61583 -0.335907,0.30232 -0.61583,0.30232 -0.212741,0 -0.335907,-0.27992 -0.156756,-0.3807 -0.369497,-0.52626 -0.268726,-0.19034 -0.884556,-0.3583 -0.604632,-0.16795 -1.052508,-0.16795 -0.884555,0 -1.757914,0.55984 -0.9405389,0.61583 -1.4667939,1.66834 -0.268725,0.52626 -0.268725,0.64942 -0.02239,0.3695 0.156756,0.47027 0.06718,0.0336 0.29112,0.0336 h 1.7915039 q 0.04479,0 0.380695,0.0448 0.347103,0.0336 0.391891,0.0336 h 2.586484 q 0.302316,0 0.571042,0.0896 0.380695,0.13436 0.380695,0.38069 0,0.23514 -0.47027,0.54865 -0.403089,0.26873 -0.582239,0.33591 -0.111969,0.0448 -0.279923,0.0448 -0.07838,0 -0.481466,-0.22393 -0.403089,-0.23514 -0.671814,-0.23514 l -2.575287,0.0336 q -0.02239,0 -0.9069489,0.056 -0.649421,0.0336 -0.660617,0.21274 -0.03359,0.30231 -0.03359,0.41428 0.04479,0.26873 0.111969,0.76139 0.134363,1.14209 1.3548249,1.94826 1.052508,0.7166 2.060229,0.7166 0.358301,0 0.906949,-0.13436 0.43668,-0.12316 0.873359,-0.23513 0.134362,-0.0336 0.671814,-0.26873 0.447876,-0.19035 0.64942,-0.19035 0.212741,0 0.212741,0.23514 0,0.20154 -0.369498,0.51506 -0.302316,0.25752 -0.571042,0.36949 -0.750192,0.33591 -0.929342,0.40309 -0.47027,0.19035 -0.929343,0.30232 -0.459073,0.11197 -0.929343,0.11197 -0.873358,0 -1.545172,-0.14556 -0.14556,-0.0336 -1.2652499,-0.55985 -1.366022,-0.63822 -2.049033,-2.01544 -0.559845,-1.13089 -0.559845,-2.46332 0,-0.45907 0.03359,-0.63822 0.04479,-0.3471 0.279923,-1.04131 0.436679,-1.33243 1.455597,-2.22819 0.671814,-0.59343 1.4444,-0.94054 0.17915,-0.0896 1.1532809,-0.36949 0.895752,-0.25753 1.813897,-0.25753 0.850965,0 1.802701,0.23513 1.533976,0.3807 1.533976,1.18687 z"
         style="font-style:normal;font-variant:normal;font-weight:normal;font-stretch:normal;font-size:11.1969px;font-family:AnironC;-inkscape-font-specification:'AnironC, Normal';font-variant-ligatures:normal;font-variant-caps:normal;font-variant-numeric:normal;font-variant-east-asian:normal;stroke-width:0.699809"
         id="path971" />
      <path
         d="m 28.117696,191.3675 q -0.08957,0.15675 -1.041312,0.48146 -0.951736,0.32471 -1.354825,0.32471 -0.459072,0 -1.589959,-0.91814 -0.906949,-0.739 -1.88108,-1.74672 -0.906949,-0.95173 -0.906949,-1.09729 0,-0.20155 1.018918,-0.88456 1.399613,-0.95174 1.892277,-1.37722 1.018917,-0.88455 1.030114,-1.56756 0.0112,-0.55985 -0.347104,-1.11969 -0.425482,-0.66062 -1.041311,-0.63823 -0.79498,0.0336 -1.791504,0.7502 -0.895752,0.63822 -1.578763,1.52277 -0.671814,0.88456 -0.671814,1.43321 v 3.50463 q 0,0.0448 0.03359,0.19034 0.04479,0.13437 0.04479,0.17915 v 1.26525 q 0,0.53746 -1.58996,0.53746 -0.862161,0 -1.097296,-0.19035 0,-0.0896 0.14556,-0.31352 0.156756,-0.23513 0.17915,-0.30231 0.123166,-0.47027 0.167954,-1.03012 0.05598,-0.75019 0.06718,-0.82857 l 0.03359,-6.69574 q -0.03359,-0.3695 -0.268726,-0.53745 -0.111969,-0.0784 -0.481467,-0.19035 -0.313513,-0.0896 -0.436679,-0.23514 0.134363,-0.32471 0.962934,-0.32471 0.05598,0 0.425482,0.0448 0.369498,0.0336 0.414285,0.0336 0.04479,0 0.134363,0.0448 0.100772,0.0336 0.14556,0.0336 0.470269,0 0.593435,0.11197 0.190348,0.26872 0.380695,0.53745 0.03359,0.24633 0.03359,0.24633 0.03359,0.13436 0.02239,0.15676 -0.03359,0.0672 -0.03359,0.0672 0,0.0112 0.08957,0.61583 0.100772,0.59344 0.07838,0.83977 0.190348,0.21274 0.257529,0.21274 -0.04479,0 0.660617,-0.739 0.806177,-0.86216 1.690732,-1.38841 1.242856,-0.739 2.541696,-0.739 0.873359,0 1.399613,0.75019 0.436679,0.63823 0.436679,1.4444 0,0.92935 -0.862161,1.90348 -0.548648,0.61583 -1.612354,1.38841 -0.873358,0.63823 -0.873358,0.7278 0,0.21274 1.410809,1.51158 1.287644,1.18687 1.970655,1.69073 0.111969,0.0784 0.559845,0.0896 0.414285,0.0112 0.638223,0.22394 z"
         style="font-style:normal;font-variant:normal;font-weight:normal;font-stretch:normal;font-size:11.1969px;font-family:AnironC;-inkscape-font-specification:'AnironC, Normal';font-variant-ligatures:normal;font-variant-caps:normal;font-variant-numeric:normal;font-variant-east-asian:normal;stroke-width:0.699809"
         id="path973" />
    </g>
  </g>
</svg>
